<mxfile host="app.diagrams.net" agent="Mozilla/5.0 (Windows NT 10.0; Win64; x64) AppleWebKit/537.36 (KHTML, like Gecko) Chrome/129.0.0.0 Safari/537.36" version="24.7.16">
  <diagram name="Trang-1" id="fihMCHkmrVU32h7_3Srb">
    <mxGraphModel dx="1450" dy="1007" grid="0" gridSize="10" guides="1" tooltips="1" connect="1" arrows="1" fold="1" page="0" pageScale="1" pageWidth="827" pageHeight="1169" math="0" shadow="0">
      <root>
        <mxCell id="0" />
        <mxCell id="1" parent="0" />
        <mxCell id="jYxFvncQByZeNSKqhiPX-1" value="Hệ thống quản lý bán hàng" style="rounded=0;whiteSpace=wrap;html=1;labelBackgroundColor=none;fillColor=#dae8fc;strokeColor=#6c8ebf;fontStyle=1;fontSize=14;" vertex="1" parent="1">
          <mxGeometry x="-76" y="-45" width="432" height="60" as="geometry" />
        </mxCell>
        <mxCell id="jYxFvncQByZeNSKqhiPX-2" value="1. Quản lý nhân viên" style="rounded=0;whiteSpace=wrap;html=1;verticalAlign=middle;fillColor=#d5e8d4;strokeColor=#82b366;fontStyle=1;fontSize=12;" vertex="1" parent="1">
          <mxGeometry x="-274" y="64" width="120" height="60" as="geometry" />
        </mxCell>
        <mxCell id="jYxFvncQByZeNSKqhiPX-3" value="2. Quản lý sản phẩm" style="rounded=0;whiteSpace=wrap;html=1;verticalAlign=middle;fillColor=#d5e8d4;strokeColor=#82b366;fontStyle=1;fontSize=12;" vertex="1" parent="1">
          <mxGeometry x="-97" y="64" width="122" height="60" as="geometry" />
        </mxCell>
        <mxCell id="jYxFvncQByZeNSKqhiPX-4" value="3. Quản lý nhà cung cấp" style="rounded=0;whiteSpace=wrap;html=1;verticalAlign=middle;fillColor=#d5e8d4;strokeColor=#82b366;fontStyle=1;fontSize=12;" vertex="1" parent="1">
          <mxGeometry x="67" y="66" width="146" height="60" as="geometry" />
        </mxCell>
        <mxCell id="jYxFvncQByZeNSKqhiPX-5" value="4. Quản lý đơn hàng" style="rounded=0;whiteSpace=wrap;html=1;verticalAlign=middle;fillColor=#d5e8d4;strokeColor=#82b366;fontStyle=1;fontSize=12;" vertex="1" parent="1">
          <mxGeometry x="241" y="66" width="137" height="60" as="geometry" />
        </mxCell>
        <mxCell id="jYxFvncQByZeNSKqhiPX-6" value="5. Quản lý khách hàng" style="rounded=0;whiteSpace=wrap;html=1;verticalAlign=middle;fillColor=#d5e8d4;strokeColor=#82b366;fontStyle=1;fontSize=12;" vertex="1" parent="1">
          <mxGeometry x="408" y="66" width="147" height="60" as="geometry" />
        </mxCell>
        <mxCell id="jYxFvncQByZeNSKqhiPX-7" value="" style="endArrow=none;html=1;rounded=0;fontSize=12;startSize=8;endSize=8;curved=1;entryX=0.5;entryY=1;entryDx=0;entryDy=0;" edge="1" parent="1" target="jYxFvncQByZeNSKqhiPX-1">
          <mxGeometry width="50" height="50" relative="1" as="geometry">
            <mxPoint x="140" y="39" as="sourcePoint" />
            <mxPoint x="169" y="175" as="targetPoint" />
          </mxGeometry>
        </mxCell>
        <mxCell id="jYxFvncQByZeNSKqhiPX-8" value="" style="endArrow=none;html=1;rounded=0;fontSize=12;startSize=8;endSize=8;curved=1;" edge="1" parent="1">
          <mxGeometry width="50" height="50" relative="1" as="geometry">
            <mxPoint x="-214" y="39" as="sourcePoint" />
            <mxPoint x="500" y="39" as="targetPoint" />
          </mxGeometry>
        </mxCell>
        <mxCell id="jYxFvncQByZeNSKqhiPX-10" value="" style="endArrow=none;html=1;rounded=0;fontSize=12;startSize=8;endSize=8;curved=1;exitX=0.5;exitY=0;exitDx=0;exitDy=0;" edge="1" parent="1" source="jYxFvncQByZeNSKqhiPX-2">
          <mxGeometry width="50" height="50" relative="1" as="geometry">
            <mxPoint x="119" y="225" as="sourcePoint" />
            <mxPoint x="-214" y="39" as="targetPoint" />
          </mxGeometry>
        </mxCell>
        <mxCell id="jYxFvncQByZeNSKqhiPX-11" value="" style="endArrow=none;html=1;rounded=0;fontSize=12;startSize=8;endSize=8;curved=1;exitX=0.25;exitY=0;exitDx=0;exitDy=0;" edge="1" parent="1" source="jYxFvncQByZeNSKqhiPX-4">
          <mxGeometry width="50" height="50" relative="1" as="geometry">
            <mxPoint x="119" y="225" as="sourcePoint" />
            <mxPoint x="102" y="40" as="targetPoint" />
          </mxGeometry>
        </mxCell>
        <mxCell id="jYxFvncQByZeNSKqhiPX-12" value="" style="endArrow=none;html=1;rounded=0;fontSize=12;startSize=8;endSize=8;curved=1;exitX=0.5;exitY=0;exitDx=0;exitDy=0;" edge="1" parent="1" source="jYxFvncQByZeNSKqhiPX-5">
          <mxGeometry width="50" height="50" relative="1" as="geometry">
            <mxPoint x="129" y="235" as="sourcePoint" />
            <mxPoint x="310" y="41" as="targetPoint" />
          </mxGeometry>
        </mxCell>
        <mxCell id="jYxFvncQByZeNSKqhiPX-13" value="" style="endArrow=none;html=1;rounded=0;fontSize=12;startSize=8;endSize=8;curved=1;" edge="1" parent="1">
          <mxGeometry width="50" height="50" relative="1" as="geometry">
            <mxPoint x="500" y="68" as="sourcePoint" />
            <mxPoint x="499" y="40" as="targetPoint" />
          </mxGeometry>
        </mxCell>
        <mxCell id="jYxFvncQByZeNSKqhiPX-15" value="" style="endArrow=none;html=1;rounded=0;fontSize=12;startSize=8;endSize=8;curved=1;exitX=0.5;exitY=0;exitDx=0;exitDy=0;" edge="1" parent="1" source="jYxFvncQByZeNSKqhiPX-3">
          <mxGeometry width="50" height="50" relative="1" as="geometry">
            <mxPoint x="-87" y="90" as="sourcePoint" />
            <mxPoint x="-37" y="40" as="targetPoint" />
          </mxGeometry>
        </mxCell>
        <mxCell id="jYxFvncQByZeNSKqhiPX-16" value="1.1.Thêm nhân viên" style="rounded=0;whiteSpace=wrap;html=1;fillColor=#fff2cc;strokeColor=#d6b656;" vertex="1" parent="1">
          <mxGeometry x="-256" y="133" width="120" height="30" as="geometry" />
        </mxCell>
        <mxCell id="jYxFvncQByZeNSKqhiPX-17" value="1.2. Sửa nhân viên" style="rounded=0;whiteSpace=wrap;html=1;fillColor=#fff2cc;strokeColor=#d6b656;" vertex="1" parent="1">
          <mxGeometry x="-256" y="173" width="120" height="30" as="geometry" />
        </mxCell>
        <mxCell id="jYxFvncQByZeNSKqhiPX-18" value="1.3. Xóa nhân viên" style="rounded=0;whiteSpace=wrap;html=1;fillColor=#fff2cc;strokeColor=#d6b656;" vertex="1" parent="1">
          <mxGeometry x="-256" y="212" width="120" height="30" as="geometry" />
        </mxCell>
        <mxCell id="jYxFvncQByZeNSKqhiPX-19" value="1.4. Cập nhật nhân viên" style="rounded=0;whiteSpace=wrap;html=1;fillColor=#fff2cc;strokeColor=#d6b656;" vertex="1" parent="1">
          <mxGeometry x="-256" y="252" width="120" height="30" as="geometry" />
        </mxCell>
        <mxCell id="jYxFvncQByZeNSKqhiPX-20" value="1.5. Tìm kiếm nhân viên theo mã ID" style="rounded=0;whiteSpace=wrap;html=1;fillColor=#fff2cc;strokeColor=#d6b656;" vertex="1" parent="1">
          <mxGeometry x="-256" y="291" width="120" height="30" as="geometry" />
        </mxCell>
        <mxCell id="jYxFvncQByZeNSKqhiPX-41" value="" style="endArrow=none;html=1;rounded=0;fontSize=12;startSize=8;endSize=8;curved=1;" edge="1" parent="1">
          <mxGeometry width="50" height="50" relative="1" as="geometry">
            <mxPoint x="-269" y="306" as="sourcePoint" />
            <mxPoint x="-269" y="124" as="targetPoint" />
          </mxGeometry>
        </mxCell>
        <mxCell id="jYxFvncQByZeNSKqhiPX-42" value="" style="endArrow=none;html=1;rounded=0;fontSize=12;startSize=8;endSize=8;curved=1;" edge="1" parent="1">
          <mxGeometry width="50" height="50" relative="1" as="geometry">
            <mxPoint x="-269" y="306" as="sourcePoint" />
            <mxPoint x="-255" y="306" as="targetPoint" />
          </mxGeometry>
        </mxCell>
        <mxCell id="jYxFvncQByZeNSKqhiPX-43" value="" style="endArrow=none;html=1;rounded=0;fontSize=12;startSize=8;endSize=8;curved=1;" edge="1" parent="1">
          <mxGeometry width="50" height="50" relative="1" as="geometry">
            <mxPoint x="-269" y="267" as="sourcePoint" />
            <mxPoint x="-256" y="267" as="targetPoint" />
          </mxGeometry>
        </mxCell>
        <mxCell id="jYxFvncQByZeNSKqhiPX-44" value="" style="endArrow=none;html=1;rounded=0;fontSize=12;startSize=8;endSize=8;curved=1;" edge="1" parent="1">
          <mxGeometry width="50" height="50" relative="1" as="geometry">
            <mxPoint x="-269" y="227" as="sourcePoint" />
            <mxPoint x="-256" y="227" as="targetPoint" />
          </mxGeometry>
        </mxCell>
        <mxCell id="jYxFvncQByZeNSKqhiPX-45" value="" style="endArrow=none;html=1;rounded=0;fontSize=12;startSize=8;endSize=8;curved=1;" edge="1" parent="1">
          <mxGeometry width="50" height="50" relative="1" as="geometry">
            <mxPoint x="-269" y="187" as="sourcePoint" />
            <mxPoint x="-256" y="187" as="targetPoint" />
          </mxGeometry>
        </mxCell>
        <mxCell id="jYxFvncQByZeNSKqhiPX-46" value="" style="endArrow=none;html=1;rounded=0;fontSize=12;startSize=8;endSize=8;curved=1;entryX=0;entryY=0.5;entryDx=0;entryDy=0;" edge="1" parent="1" target="jYxFvncQByZeNSKqhiPX-16">
          <mxGeometry width="50" height="50" relative="1" as="geometry">
            <mxPoint x="-269" y="148" as="sourcePoint" />
            <mxPoint x="-256" y="147" as="targetPoint" />
          </mxGeometry>
        </mxCell>
        <mxCell id="jYxFvncQByZeNSKqhiPX-58" value="2.1.Thêm sản phẩm" style="rounded=0;whiteSpace=wrap;html=1;fillColor=#fff2cc;strokeColor=#d6b656;" vertex="1" parent="1">
          <mxGeometry x="-82" y="133" width="120" height="30" as="geometry" />
        </mxCell>
        <mxCell id="jYxFvncQByZeNSKqhiPX-59" value="2.2. Sửa sản phẩm" style="rounded=0;whiteSpace=wrap;html=1;fillColor=#fff2cc;strokeColor=#d6b656;" vertex="1" parent="1">
          <mxGeometry x="-82" y="173" width="120" height="30" as="geometry" />
        </mxCell>
        <mxCell id="jYxFvncQByZeNSKqhiPX-60" value="2.3. Xóa sản phẩm" style="rounded=0;whiteSpace=wrap;html=1;fillColor=#fff2cc;strokeColor=#d6b656;" vertex="1" parent="1">
          <mxGeometry x="-82" y="212" width="120" height="30" as="geometry" />
        </mxCell>
        <mxCell id="jYxFvncQByZeNSKqhiPX-61" value="2.4. Cập nhật sản phẩm" style="rounded=0;whiteSpace=wrap;html=1;fillColor=#fff2cc;strokeColor=#d6b656;" vertex="1" parent="1">
          <mxGeometry x="-82" y="252" width="120" height="30" as="geometry" />
        </mxCell>
        <mxCell id="jYxFvncQByZeNSKqhiPX-62" value="2.5. Tìm kiếm sản phẩm theo danh mục" style="rounded=0;whiteSpace=wrap;html=1;fillColor=#fff2cc;strokeColor=#d6b656;" vertex="1" parent="1">
          <mxGeometry x="-82" y="291" width="120" height="30" as="geometry" />
        </mxCell>
        <mxCell id="jYxFvncQByZeNSKqhiPX-63" value="" style="endArrow=none;html=1;rounded=0;fontSize=12;startSize=8;endSize=8;curved=1;" edge="1" parent="1">
          <mxGeometry width="50" height="50" relative="1" as="geometry">
            <mxPoint x="-94" y="306" as="sourcePoint" />
            <mxPoint x="-94" y="124" as="targetPoint" />
          </mxGeometry>
        </mxCell>
        <mxCell id="jYxFvncQByZeNSKqhiPX-64" value="" style="endArrow=none;html=1;rounded=0;fontSize=12;startSize=8;endSize=8;curved=1;" edge="1" parent="1">
          <mxGeometry width="50" height="50" relative="1" as="geometry">
            <mxPoint x="-94" y="306" as="sourcePoint" />
            <mxPoint x="-81" y="306" as="targetPoint" />
          </mxGeometry>
        </mxCell>
        <mxCell id="jYxFvncQByZeNSKqhiPX-65" value="" style="endArrow=none;html=1;rounded=0;fontSize=12;startSize=8;endSize=8;curved=1;" edge="1" parent="1">
          <mxGeometry width="50" height="50" relative="1" as="geometry">
            <mxPoint x="-94" y="266.71000000000004" as="sourcePoint" />
            <mxPoint x="-82" y="267" as="targetPoint" />
          </mxGeometry>
        </mxCell>
        <mxCell id="jYxFvncQByZeNSKqhiPX-66" value="" style="endArrow=none;html=1;rounded=0;fontSize=12;startSize=8;endSize=8;curved=1;" edge="1" parent="1">
          <mxGeometry width="50" height="50" relative="1" as="geometry">
            <mxPoint x="-94" y="226" as="sourcePoint" />
            <mxPoint x="-81" y="226" as="targetPoint" />
          </mxGeometry>
        </mxCell>
        <mxCell id="jYxFvncQByZeNSKqhiPX-67" value="" style="endArrow=none;html=1;rounded=0;fontSize=12;startSize=8;endSize=8;curved=1;" edge="1" parent="1">
          <mxGeometry width="50" height="50" relative="1" as="geometry">
            <mxPoint x="-94" y="187.70999999999998" as="sourcePoint" />
            <mxPoint x="-81" y="188" as="targetPoint" />
          </mxGeometry>
        </mxCell>
        <mxCell id="jYxFvncQByZeNSKqhiPX-68" value="" style="endArrow=none;html=1;rounded=0;fontSize=12;startSize=8;endSize=8;curved=1;" edge="1" parent="1">
          <mxGeometry width="50" height="50" relative="1" as="geometry">
            <mxPoint x="-93" y="148" as="sourcePoint" />
            <mxPoint x="-82" y="148" as="targetPoint" />
          </mxGeometry>
        </mxCell>
        <mxCell id="jYxFvncQByZeNSKqhiPX-69" value="3.1. Thêm nhà cung cấp" style="rounded=0;whiteSpace=wrap;html=1;fillColor=#fff2cc;strokeColor=#d6b656;" vertex="1" parent="1">
          <mxGeometry x="86" y="135" width="138" height="30" as="geometry" />
        </mxCell>
        <mxCell id="jYxFvncQByZeNSKqhiPX-70" value="3.2. Sửa nhà cung cấp" style="rounded=0;whiteSpace=wrap;html=1;fillColor=#fff2cc;strokeColor=#d6b656;" vertex="1" parent="1">
          <mxGeometry x="86" y="175" width="139" height="30" as="geometry" />
        </mxCell>
        <mxCell id="jYxFvncQByZeNSKqhiPX-71" value="3.3. Xóa nhà cung cấp" style="rounded=0;whiteSpace=wrap;html=1;fillColor=#fff2cc;strokeColor=#d6b656;" vertex="1" parent="1">
          <mxGeometry x="86" y="214" width="140" height="30" as="geometry" />
        </mxCell>
        <mxCell id="jYxFvncQByZeNSKqhiPX-72" value="3.4. Cập nhật nhà cung cấp" style="rounded=0;whiteSpace=wrap;html=1;fillColor=#fff2cc;strokeColor=#d6b656;" vertex="1" parent="1">
          <mxGeometry x="86" y="254" width="140" height="30" as="geometry" />
        </mxCell>
        <mxCell id="jYxFvncQByZeNSKqhiPX-73" value="3.5. Tìm kiếm nhà cung cấp theo mã ID" style="rounded=0;whiteSpace=wrap;html=1;fillColor=#fff2cc;strokeColor=#d6b656;" vertex="1" parent="1">
          <mxGeometry x="86" y="293" width="140" height="30" as="geometry" />
        </mxCell>
        <mxCell id="jYxFvncQByZeNSKqhiPX-74" value="" style="endArrow=none;html=1;rounded=0;fontSize=12;startSize=8;endSize=8;curved=1;" edge="1" parent="1">
          <mxGeometry width="50" height="50" relative="1" as="geometry">
            <mxPoint x="73" y="308" as="sourcePoint" />
            <mxPoint x="73" y="126" as="targetPoint" />
          </mxGeometry>
        </mxCell>
        <mxCell id="jYxFvncQByZeNSKqhiPX-75" value="" style="endArrow=none;html=1;rounded=0;fontSize=12;startSize=8;endSize=8;curved=1;" edge="1" parent="1">
          <mxGeometry width="50" height="50" relative="1" as="geometry">
            <mxPoint x="73" y="308" as="sourcePoint" />
            <mxPoint x="87" y="308" as="targetPoint" />
          </mxGeometry>
        </mxCell>
        <mxCell id="jYxFvncQByZeNSKqhiPX-76" value="" style="endArrow=none;html=1;rounded=0;fontSize=12;startSize=8;endSize=8;curved=1;" edge="1" parent="1">
          <mxGeometry width="50" height="50" relative="1" as="geometry">
            <mxPoint x="73" y="269" as="sourcePoint" />
            <mxPoint x="86" y="269" as="targetPoint" />
          </mxGeometry>
        </mxCell>
        <mxCell id="jYxFvncQByZeNSKqhiPX-77" value="" style="endArrow=none;html=1;rounded=0;fontSize=12;startSize=8;endSize=8;curved=1;" edge="1" parent="1">
          <mxGeometry width="50" height="50" relative="1" as="geometry">
            <mxPoint x="73" y="229" as="sourcePoint" />
            <mxPoint x="86" y="229" as="targetPoint" />
          </mxGeometry>
        </mxCell>
        <mxCell id="jYxFvncQByZeNSKqhiPX-78" value="" style="endArrow=none;html=1;rounded=0;fontSize=12;startSize=8;endSize=8;curved=1;" edge="1" parent="1">
          <mxGeometry width="50" height="50" relative="1" as="geometry">
            <mxPoint x="73" y="189" as="sourcePoint" />
            <mxPoint x="86" y="189" as="targetPoint" />
          </mxGeometry>
        </mxCell>
        <mxCell id="jYxFvncQByZeNSKqhiPX-79" value="" style="endArrow=none;html=1;rounded=0;fontSize=12;startSize=8;endSize=8;curved=1;entryX=0;entryY=0.5;entryDx=0;entryDy=0;" edge="1" target="jYxFvncQByZeNSKqhiPX-69" parent="1">
          <mxGeometry width="50" height="50" relative="1" as="geometry">
            <mxPoint x="73" y="150" as="sourcePoint" />
            <mxPoint x="86" y="149" as="targetPoint" />
          </mxGeometry>
        </mxCell>
        <mxCell id="jYxFvncQByZeNSKqhiPX-91" value="4.1. Thêm đơn hàng" style="rounded=0;whiteSpace=wrap;html=1;fillColor=#fff2cc;strokeColor=#d6b656;" vertex="1" parent="1">
          <mxGeometry x="267" y="135" width="120" height="30" as="geometry" />
        </mxCell>
        <mxCell id="jYxFvncQByZeNSKqhiPX-92" value="4.2. Sửa đơn hàng" style="rounded=0;whiteSpace=wrap;html=1;fillColor=#fff2cc;strokeColor=#d6b656;" vertex="1" parent="1">
          <mxGeometry x="267" y="175" width="120" height="30" as="geometry" />
        </mxCell>
        <mxCell id="jYxFvncQByZeNSKqhiPX-93" value="4.3. Xóa đơn hàng" style="rounded=0;whiteSpace=wrap;html=1;fillColor=#fff2cc;strokeColor=#d6b656;" vertex="1" parent="1">
          <mxGeometry x="267" y="214" width="120" height="30" as="geometry" />
        </mxCell>
        <mxCell id="jYxFvncQByZeNSKqhiPX-94" value="4.4. Cập nhật đơn hàng" style="rounded=0;whiteSpace=wrap;html=1;fillColor=#fff2cc;strokeColor=#d6b656;" vertex="1" parent="1">
          <mxGeometry x="267" y="254" width="120" height="30" as="geometry" />
        </mxCell>
        <mxCell id="jYxFvncQByZeNSKqhiPX-95" value="4.5. Tìm kiếm đơn hàng theo mã ID" style="rounded=0;whiteSpace=wrap;html=1;fillColor=#fff2cc;strokeColor=#d6b656;" vertex="1" parent="1">
          <mxGeometry x="267" y="293" width="120" height="30" as="geometry" />
        </mxCell>
        <mxCell id="jYxFvncQByZeNSKqhiPX-96" value="" style="endArrow=none;html=1;rounded=0;fontSize=12;startSize=8;endSize=8;curved=1;" edge="1" parent="1">
          <mxGeometry width="50" height="50" relative="1" as="geometry">
            <mxPoint x="254" y="308" as="sourcePoint" />
            <mxPoint x="268" y="308" as="targetPoint" />
          </mxGeometry>
        </mxCell>
        <mxCell id="jYxFvncQByZeNSKqhiPX-97" value="" style="endArrow=none;html=1;rounded=0;fontSize=12;startSize=8;endSize=8;curved=1;" edge="1" parent="1">
          <mxGeometry width="50" height="50" relative="1" as="geometry">
            <mxPoint x="254" y="269" as="sourcePoint" />
            <mxPoint x="267" y="269" as="targetPoint" />
          </mxGeometry>
        </mxCell>
        <mxCell id="jYxFvncQByZeNSKqhiPX-98" value="" style="endArrow=none;html=1;rounded=0;fontSize=12;startSize=8;endSize=8;curved=1;" edge="1" parent="1">
          <mxGeometry width="50" height="50" relative="1" as="geometry">
            <mxPoint x="254" y="229" as="sourcePoint" />
            <mxPoint x="267" y="229" as="targetPoint" />
          </mxGeometry>
        </mxCell>
        <mxCell id="jYxFvncQByZeNSKqhiPX-99" value="" style="endArrow=none;html=1;rounded=0;fontSize=12;startSize=8;endSize=8;curved=1;" edge="1" parent="1">
          <mxGeometry width="50" height="50" relative="1" as="geometry">
            <mxPoint x="254" y="189" as="sourcePoint" />
            <mxPoint x="267" y="189" as="targetPoint" />
          </mxGeometry>
        </mxCell>
        <mxCell id="jYxFvncQByZeNSKqhiPX-100" value="" style="endArrow=none;html=1;rounded=0;fontSize=12;startSize=8;endSize=8;curved=1;entryX=0;entryY=0.5;entryDx=0;entryDy=0;" edge="1" target="jYxFvncQByZeNSKqhiPX-91" parent="1">
          <mxGeometry width="50" height="50" relative="1" as="geometry">
            <mxPoint x="254" y="150" as="sourcePoint" />
            <mxPoint x="267" y="149" as="targetPoint" />
          </mxGeometry>
        </mxCell>
        <mxCell id="jYxFvncQByZeNSKqhiPX-101" value="" style="endArrow=none;html=1;rounded=0;fontSize=12;startSize=8;endSize=8;curved=1;" edge="1" parent="1">
          <mxGeometry width="50" height="50" relative="1" as="geometry">
            <mxPoint x="254" y="308" as="sourcePoint" />
            <mxPoint x="254" y="126" as="targetPoint" />
          </mxGeometry>
        </mxCell>
        <mxCell id="jYxFvncQByZeNSKqhiPX-102" value="5.1. Thêm khách hàng" style="rounded=0;whiteSpace=wrap;html=1;fillColor=#fff2cc;strokeColor=#d6b656;" vertex="1" parent="1">
          <mxGeometry x="433" y="135" width="120" height="30" as="geometry" />
        </mxCell>
        <mxCell id="jYxFvncQByZeNSKqhiPX-103" value="5.2. Sửa khách hàng" style="rounded=0;whiteSpace=wrap;html=1;fillColor=#fff2cc;strokeColor=#d6b656;" vertex="1" parent="1">
          <mxGeometry x="433" y="175" width="120" height="30" as="geometry" />
        </mxCell>
        <mxCell id="jYxFvncQByZeNSKqhiPX-104" value="5.3. Xóa khách hàng" style="rounded=0;whiteSpace=wrap;html=1;fillColor=#fff2cc;strokeColor=#d6b656;" vertex="1" parent="1">
          <mxGeometry x="433" y="214" width="120" height="30" as="geometry" />
        </mxCell>
        <mxCell id="jYxFvncQByZeNSKqhiPX-105" value="5.4. Cập nhật khách hàng" style="rounded=0;whiteSpace=wrap;html=1;fillColor=#fff2cc;strokeColor=#d6b656;" vertex="1" parent="1">
          <mxGeometry x="433" y="254" width="120" height="30" as="geometry" />
        </mxCell>
        <mxCell id="jYxFvncQByZeNSKqhiPX-106" value="5.5. Tìm kiếm khách hàng theo mã ID" style="rounded=0;whiteSpace=wrap;html=1;fillColor=#fff2cc;strokeColor=#d6b656;" vertex="1" parent="1">
          <mxGeometry x="433" y="293" width="120" height="30" as="geometry" />
        </mxCell>
        <mxCell id="jYxFvncQByZeNSKqhiPX-107" value="" style="endArrow=none;html=1;rounded=0;fontSize=12;startSize=8;endSize=8;curved=1;" edge="1" parent="1">
          <mxGeometry width="50" height="50" relative="1" as="geometry">
            <mxPoint x="420" y="308" as="sourcePoint" />
            <mxPoint x="434" y="308" as="targetPoint" />
          </mxGeometry>
        </mxCell>
        <mxCell id="jYxFvncQByZeNSKqhiPX-108" value="" style="endArrow=none;html=1;rounded=0;fontSize=12;startSize=8;endSize=8;curved=1;" edge="1" parent="1">
          <mxGeometry width="50" height="50" relative="1" as="geometry">
            <mxPoint x="420" y="269" as="sourcePoint" />
            <mxPoint x="433" y="269" as="targetPoint" />
          </mxGeometry>
        </mxCell>
        <mxCell id="jYxFvncQByZeNSKqhiPX-109" value="" style="endArrow=none;html=1;rounded=0;fontSize=12;startSize=8;endSize=8;curved=1;" edge="1" parent="1">
          <mxGeometry width="50" height="50" relative="1" as="geometry">
            <mxPoint x="420" y="229" as="sourcePoint" />
            <mxPoint x="433" y="229" as="targetPoint" />
          </mxGeometry>
        </mxCell>
        <mxCell id="jYxFvncQByZeNSKqhiPX-110" value="" style="endArrow=none;html=1;rounded=0;fontSize=12;startSize=8;endSize=8;curved=1;" edge="1" parent="1">
          <mxGeometry width="50" height="50" relative="1" as="geometry">
            <mxPoint x="420" y="189" as="sourcePoint" />
            <mxPoint x="433" y="189" as="targetPoint" />
          </mxGeometry>
        </mxCell>
        <mxCell id="jYxFvncQByZeNSKqhiPX-111" value="" style="endArrow=none;html=1;rounded=0;fontSize=12;startSize=8;endSize=8;curved=1;entryX=0;entryY=0.5;entryDx=0;entryDy=0;" edge="1" target="jYxFvncQByZeNSKqhiPX-102" parent="1">
          <mxGeometry width="50" height="50" relative="1" as="geometry">
            <mxPoint x="420" y="150" as="sourcePoint" />
            <mxPoint x="433" y="149" as="targetPoint" />
          </mxGeometry>
        </mxCell>
        <mxCell id="jYxFvncQByZeNSKqhiPX-112" value="" style="endArrow=none;html=1;rounded=0;fontSize=12;startSize=8;endSize=8;curved=1;" edge="1" parent="1">
          <mxGeometry width="50" height="50" relative="1" as="geometry">
            <mxPoint x="420" y="308" as="sourcePoint" />
            <mxPoint x="420" y="126" as="targetPoint" />
          </mxGeometry>
        </mxCell>
      </root>
    </mxGraphModel>
  </diagram>
</mxfile>
